<?xml version="1.0" encoding="utf-8"?>
<!-- Generator: Adobe Illustrator 19.2.0, SVG Export Plug-In . SVG Version: 6.00 Build 0)  -->
<svg version="1.1" id="Layer_1" focusable="false" xmlns="http://www.w3.org/2000/svg" xmlns:xlink="http://www.w3.org/1999/xlink"
	 x="0px" y="0px" viewBox="0 0 448 512" style="enable-background:new 0 0 448 512;" xml:space="preserve">
<g>
	<path d="M400,32H48C21.5,32,0,53.5,0,80v352c0,26.5,21.5,48,48,48h352c26.5,0,48-21.5,48-48V80C448,53.5,426.5,32,400,32z
		 M135.5,416L135.5,416H69V202.2h66.5V416z M102.2,173c-21.3,0-38.5-17.3-38.5-38.5S80.9,96,102.2,96c21.2,0,38.5,17.3,38.5,38.5
		C140.7,155.8,123.5,173,102.2,173z M384.3,416h-66.4V312c0-24.8-0.5-56.7-34.5-56.7c-34.6,0-39.9,27-39.9,54.9V416h-66.4V202.2
		h63.7v29.2h0.9c8.9-16.8,30.6-34.5,62.9-34.5c67.2,0,79.7,44.3,79.7,101.9V416z"/>
</g>
</svg>
